<svg width="103" height="50" viewBox="0 0 103 50" fill="none" xmlns="http://www.w3.org/2000/svg">
<rect x="1" y="1" width="23" height="48" stroke="#F5BF59" stroke-width="2"/>
<path d="M15.8772 15H19.4172V26.28L29.4372 15H33.6072L19.4172 30.57V36H15.8772V15ZM25.0872 23.49L34.1472 36H29.8872L22.7472 26.31L25.0872 23.49Z" fill="#2B3F5F"/>
<path d="M40.5304 27.39C40.5304 29.21 41.0304 30.64 42.0304 31.68C43.0304 32.72 44.3804 33.24 46.0804 33.24C47.7604 33.24 49.0904 32.73 50.0704 31.71C51.0504 30.67 51.5404 29.23 51.5404 27.39V15H55.0804V27.39C55.0804 29.21 54.7204 30.79 54.0004 32.13C53.2804 33.45 52.2404 34.47 50.8804 35.19C49.5404 35.89 47.9404 36.24 46.0804 36.24C44.2004 36.24 42.5804 35.89 41.2204 35.19C39.8604 34.47 38.8104 33.45 38.0704 32.13C37.3504 30.79 36.9904 29.21 36.9904 27.39V15H40.5304V27.39ZM69.2941 15C70.7541 15 72.0041 15.21 73.0441 15.63C74.1041 16.05 74.9141 16.65 75.4741 17.43C76.0541 18.21 76.3441 19.15 76.3441 20.25C76.3441 21.43 76.0141 22.44 75.3541 23.28C74.6941 24.12 73.7941 24.67 72.6541 24.93C74.0541 25.17 75.1541 25.76 75.9541 26.7C76.7541 27.64 77.1541 28.82 77.1541 30.24C77.1541 31.44 76.8441 32.47 76.2241 33.33C75.6041 34.19 74.7241 34.85 73.5841 35.31C72.4441 35.77 71.0841 36 69.5041 36H60.1741V15H69.2941ZM69.1141 23.73C70.2341 23.73 71.1141 23.48 71.7541 22.98C72.3941 22.46 72.7141 21.74 72.7141 20.82C72.7141 19.92 72.3941 19.23 71.7541 18.75C71.1141 18.25 70.2341 18.01 69.1141 18.03H63.7141V23.73H69.1141ZM69.1141 32.97C70.4941 32.99 71.5741 32.73 72.3541 32.19C73.1341 31.63 73.5241 30.84 73.5241 29.82C73.5241 28.86 73.1341 28.11 72.3541 27.57C71.5741 27.01 70.4941 26.74 69.1141 26.76H63.7141V32.97H69.1141ZM90.7457 14.79C92.3057 14.79 93.7557 15.06 95.0957 15.6C96.4557 16.14 97.6357 16.9 98.6357 17.88C99.6557 18.86 100.446 20 101.006 21.3C101.586 22.58 101.876 23.97 101.876 25.47C101.876 26.97 101.586 28.38 101.006 29.7C100.446 31 99.6557 32.14 98.6357 33.12C97.6357 34.1 96.4557 34.87 95.0957 35.43C93.7557 35.97 92.3057 36.24 90.7457 36.24C89.1857 36.24 87.7257 35.97 86.3657 35.43C85.0257 34.87 83.8457 34.1 82.8257 33.12C81.8257 32.14 81.0357 31 80.4557 29.7C79.8957 28.38 79.6157 26.97 79.6157 25.47C79.6157 23.97 79.8957 22.57 80.4557 21.27C81.0357 19.97 81.8257 18.84 82.8257 17.88C83.8457 16.9 85.0257 16.14 86.3657 15.6C87.7257 15.06 89.1857 14.79 90.7457 14.79ZM90.7757 17.79C89.7357 17.79 88.7557 17.99 87.8357 18.39C86.9357 18.77 86.1357 19.31 85.4357 20.01C84.7357 20.71 84.1857 21.53 83.7857 22.47C83.4057 23.39 83.2157 24.39 83.2157 25.47C83.2157 26.55 83.4157 27.56 83.8157 28.5C84.2157 29.44 84.7657 30.27 85.4657 30.99C86.1657 31.69 86.9657 32.24 87.8657 32.64C88.7857 33.04 89.7557 33.24 90.7757 33.24C91.7957 33.24 92.7557 33.04 93.6557 32.64C94.5757 32.24 95.3757 31.69 96.0557 30.99C96.7357 30.27 97.2657 29.44 97.6457 28.5C98.0457 27.56 98.2457 26.55 98.2457 25.47C98.2457 24.39 98.0457 23.39 97.6457 22.47C97.2657 21.53 96.7357 20.71 96.0557 20.01C95.3757 19.31 94.5757 18.77 93.6557 18.39C92.7557 17.99 91.7957 17.79 90.7757 17.79Z" fill="#F5BF59"/>
</svg>
